<!-- Generated by IcoMoon.io -->
<svg version="1.1" xmlns="http://www.w3.org/2000/svg" width="448" height="448" viewBox="0 0 448 448">
<title></title>
<g id="icomoon-ignore">
</g>
<path fill="#000" d="M439.159 351.946l8.746 78.217c0.5 4.498-1 8.996-3.998 12.495-2.999 3.249-7.497 5.248-11.995 5.248h-415.824c-4.498 0-8.996-1.999-11.995-5.248-2.999-3.499-4.498-7.997-3.998-12.495l8.746-78.217h430.318zM415.919 142.285l21.491 193.668h-426.819l21.491-193.668c1-7.997 7.746-14.244 15.993-14.244h63.973v31.986c0 17.742 14.244 31.987 31.987 31.987s31.986-14.244 31.986-31.987v-31.986h95.959v31.986c0 17.742 14.244 31.987 31.986 31.987s31.986-14.244 31.986-31.987v-31.986h63.973c8.246 0 14.994 6.248 15.993 14.244zM319.96 96.055v63.973c0 8.747-7.247 15.993-15.993 15.993s-15.993-7.247-15.993-15.993v-63.973c0-35.235-28.738-63.973-63.973-63.973s-63.973 28.738-63.973 63.973v63.973c0 8.747-7.247 15.993-15.993 15.993s-15.993-7.247-15.993-15.993v-63.973c0-52.978 42.982-95.96 95.959-95.96s95.96 42.982 95.96 95.96z"></path>
</svg>
